<svg id="Layer_1" data-name="Layer 1" xmlns="http://www.w3.org/2000/svg" viewBox="0 0 1000 1000"><defs><style>.cls-1{fill:#fff;}.cls-2{fill:#531e93;}.cls-3{fill:#0c73fd;}</style></defs><circle class="cls-1" cx="500" cy="500" r="485.62"/><path class="cls-2" d="M494.25,199.57v31.71l30.22.49c27.6.38,30.58.63,35.81,3,25.11,11.68,26,45.75,1.36,57.94l-5.84,2.86-101.33.62-101.33.62-9.95,3.48c-34.81,11.81-58.81,38.92-66,74.23-4.48,22.5.62,48.74,13.43,68.5s32.45,34.44,56.45,41.78c6.83,2,18.77,2.24,163.37,2.86l156,.62,5.09,2.74c10.82,5.84,16.79,14.92,17.66,27.23.87,13.3-6.22,24.61-18.9,30.46-4.73,2.11-9.2,2.36-58.19,2.36H558.91v64.78l57.56-.5c64.53-.5,63.41-.37,83.56-10.2,25.48-12.43,43.76-35.06,51.1-63.41,3.48-13.55,3-34.19-1.25-48.49a97.24,97.24,0,0,0-74.1-67.76c-5.47-.87-56.7-1.36-159.77-1.61-169.34-.25-155.41.49-166-9.2-7.21-6.34-9.95-12.69-9.95-22.76,0-13.3,6.47-23.37,18.65-29.09l5.6-2.61H514.15c121.84,0,151.06.37,156.66,1.74,37.42,9.2,59.18,20.76,82.8,44.26,29,28.72,45,64.53,47.37,105.68,1.62,28.23-6.71,61.55-21.76,86.66A162,162,0,0,1,674.79,674.4c-11.44,2.61-15.42,2.73-84.43,3.11l-72.48.49v64.53h69.38c38.41,0,74.22-.62,80.44-1.24,33.69-3.86,74-19,101.33-38.3,67.76-47.62,104.19-126.32,95.86-207.13-9.7-93.5-77.33-171.46-169-194.58-13.8-3.49-34.44-6.35-46.13-6.35-5.47,0-10.07-.37-10.07-.87s.87-5.22,2-10.69c3.11-15.42,2-35.56-2.86-49.73-10.56-30.21-34.06-52.59-65.27-61.92-8.21-2.49-12.56-2.86-44.14-3.36l-35.19-.49Z"/><path class="cls-3" d="M388.57,173.21c-25.86,4.35-48,9.2-57.19,12.81-2.36,1-6.84,2.73-9.95,3.85s-7.83,3-10.57,4.11c-7.58,2.86-31.7,14.92-37.3,18.65-2.73,1.86-7.08,4.47-9.57,5.84-7.46,3.85-31.7,23.62-44.26,35.93-18.9,18.53-37.8,43.15-46.5,60.43a61.11,61.11,0,0,1-3.48,6.21c-5.23,5-22.38,46.88-26.61,65.28-7,29.22-8.45,39.91-9.08,64.65C132.57,506.67,144.13,553.3,172,603.9c14.05,25.74,46.13,63,69.88,81.44,13.8,10.57,13.18,9.2,10.2,22.75-1.37,6.22-2.86,12.81-3.11,14.55s-1.62,7-2.74,11.81-3,13.68-4.35,19.89-3.23,15-4.35,19.9-3.61,16.53-5.72,26.11-4.23,19.64-4.85,22.38c-2.61,11.56,0,12.3,10.44,3.1,3.86-3.35,12.81-10.81,19.77-16.41,18-14.67,36.06-29.59,37.55-31.33.75-.75,5.22-4.48,9.95-8.21s13.43-10.94,19.27-16a194.31,194.31,0,0,1,15.79-12.56l5.35-3.36,12.68,3c7.08,1.74,16.78,3.6,21.51,4.22,16.16,2.12,42.27,3.61,46,2.61l3.73-1V666.07l-6.22-.87c-16.91-2.74-40.16-7.59-51.84-10.94-51-14.68-93.63-41.9-114.64-73.36-34.69-52-46.62-82.43-49.36-125.58-6.09-100.08,53.59-188.86,147.83-219.94,12.56-4.1,25.24-7,51.23-11.07l5.59-.87v-51l-8.08-.25A111.62,111.62,0,0,0,388.57,173.21Z"/></svg>